<svg width="600" height="600" viewBox="0 0 600 600" fill="none" xmlns="http://www.w3.org/2000/svg">
<g clip-path="url(#clip0_6191_4229)">
<path d="M136.341 275.516C120.484 256.53 105.9 235.917 98.094 212.421C90.2884 188.925 89.8776 162.052 101.709 140.348C113.541 118.644 138.847 103.591 163.106 108.204C201.62 115.514 220.436 164.029 258.169 174.696C282.325 181.533 308.043 170.804 328.871 156.76C349.7 142.716 368.392 124.966 391.5 115.082C406.653 108.739 423.06 105.983 439.448 107.03C455.835 108.076 471.761 112.896 485.988 121.115C508.46 134.315 526.536 159.149 522.962 184.951C518.854 215.551 486.338 239.582 490.692 270.162C493.589 290.466 511.849 304.654 521.093 322.919C527.102 334.795 529.187 348.279 527.048 361.421C524.909 374.563 518.655 386.683 509.192 396.028C499.729 405.372 487.547 411.457 474.406 413.403C461.266 415.35 447.849 413.056 436.095 406.853C418.224 397.422 406.043 380.083 395.444 362.827C384.845 345.571 374.677 327.388 359.025 314.6C343.373 301.812 320.285 295.634 302.722 305.663C275.259 321.354 263.53 361.859 225.406 343.264C191.884 326.893 160.312 304.242 136.341 275.516Z" fill="url(#paint0_linear_6191_4229)"/>
<path d="M499.728 369.252C520.844 368.531 519.591 361.921 524.007 350.945C532.45 329.879 560.036 340.937 557.037 359.367C555.517 368.696 544.713 377.097 539.619 383.646C534.155 390.379 556.216 410.416 541.508 425.51C533.066 434.158 514.333 434.385 510.409 444.434C501.289 466.612 539.064 473.263 512.073 491.467C496.996 502.154 505.377 508.146 507.246 515.148C512.833 531.848 458.79 562.16 432.477 515.436C407.828 471.163 455.75 448.408 465.199 429.834C476.496 407.677 462.22 370.343 499.728 369.252Z" fill="url(#paint1_linear_6191_4229)"/>
<path d="M467.213 540.105C474.156 540.95 463.741 478.473 511.951 460.64C510.616 457.819 489.705 467.847 478.777 488.954C483.604 469.786 489.86 451.008 497.49 432.779C506.425 415.213 527.213 408.747 546.48 410.518C546.275 407.203 516.326 406.853 500.715 425.139C524.974 370.055 551.348 343.594 547.651 341.37C501.023 411.96 510.061 408.068 511.088 393.159C512.136 376.809 506.261 355.516 509.034 377.077C510.472 388.073 510.287 400.675 505.748 410.766C465.446 494.308 484.097 506.787 473.519 462.926C453.348 383.666 475.573 470.009 475.963 486.586C476.6 494.185 475.511 495.194 474.32 500.836C470.766 518.545 477.935 500.836 459.017 438.647C456.49 441.572 464.686 458.642 468.918 484.074C472.574 507.755 472.738 508.084 467.213 540.105Z" fill="white"/>
<path d="M76.5263 371.661C91.213 339.908 59.9703 352.057 58.9433 328.767C58.286 315.65 76.2798 298.991 92.8768 316.412C100.005 324.093 103.291 331.568 106.763 336.551C113.295 345.776 128.803 332.886 145.092 348.906C174.198 377.2 121.86 407.986 175.184 430.905C190.056 437.268 190.508 448.944 184.387 463.214C171.672 491.57 192.315 489.243 190.015 506.458C188.084 520.172 172.966 532.116 157.971 533.413C137.225 535.266 108.139 520.646 97.8478 499.6C84.9891 474.746 108.837 453.247 103.702 431.646C101.278 421.247 89.4671 411.939 80.9631 404.444C69.3986 394.251 69.5835 386.837 76.5263 371.661Z" fill="url(#paint2_linear_6191_4229)"/>
<path d="M148.994 533.186C155.958 533.845 146.776 488.851 154.91 452.876C160.477 428.701 166.516 426.457 163.373 424.315C159.805 431.658 156.924 439.317 154.766 447.193C141.826 495.193 161.668 480.717 131.617 409.756C125.455 392.335 128.967 371.908 134.842 354.487C144.66 325.493 128.679 358.049 127.077 383.027C124.181 415.234 139.402 404.546 97.1902 350.904C91.6031 343.82 64.9615 313.961 62.168 317.956C79.751 331.259 98.4432 352.077 113.52 377.673C106.762 370.631 95.0334 364.309 79.8332 362.641C77.7791 370.549 128.433 346.765 147.947 474.354C137.122 450.9 103.435 429.236 104.113 433.684C117.423 441.139 133.075 453.803 141.292 466.158C149.508 478.019 149.22 483.023 150.083 497.047C145.687 479.708 130.528 457.716 104.133 441.654C103.64 445.298 127.488 455.059 141.579 480.655C151.562 498.138 151.706 509.402 148.994 533.186Z" fill="white"/>
<path d="M501.516 536.275C496.463 538.437 497.285 539.055 496.607 533.454C492.108 498.447 519.202 471.862 553.156 475.487C558.743 476.043 558.127 475.219 556.052 480.347C542.187 514.159 534.854 521.634 501.516 536.275Z" fill="url(#paint3_linear_6191_4229)"/>
<path d="M543.894 505.593C544.9 503.987 528.427 501.701 517.643 509.506C528.242 497.151 535.513 489.655 550.857 492.6C551.658 490.891 540.731 490.211 533.644 493.65C551.556 478.103 560.511 476.641 557.122 476.002C521.812 496.471 534.219 501.042 539.991 475.796C537.649 476.126 538.204 488.152 528.55 497.089C507.002 517.104 522.1 511.998 523.784 480.615C521.73 481.603 523.784 483.024 520.744 496.265C517.232 511.071 512.774 512.945 504.784 524.971C508.255 515.663 508.687 502.875 507.639 493.176C505.729 495.524 508.112 493.732 507.084 509.238C505.606 530.407 494.02 539.22 498.005 537.758C513.082 510.989 531.015 520.255 533.89 517.743C524.77 516.137 512.959 518.464 505.462 525.424C514.027 512.389 522.778 501.31 543.894 505.593Z" fill="white"/>
<path d="M330.266 532.734C327.246 539.262 330.266 541.753 312.067 524.229C288.835 500.919 282.426 486.319 281.091 453.351C280.516 428.146 280.351 431.955 287.253 434.159C330.471 447.935 349.533 491.446 330.266 532.734Z" fill="url(#paint4_linear_6191_4229)"/>
<path d="M321.292 456.15C318.745 453.288 313.487 479.79 315.253 493.216C306.914 471.306 299.539 466.611 304.12 441.921L303.093 441.324C301.4 449.396 301.316 457.724 302.846 465.829C295.39 451.414 282.552 431.687 281.381 432.469C281.155 435.105 288.838 441.2 301.922 466.344C296.308 460.588 289.066 456.699 281.176 455.203C281.299 457.86 284.586 455.45 294.281 461.381C303.155 466.92 306.605 473.242 314.267 493.546C307.509 483.579 295.554 477.175 283.23 474.869C283.723 477.463 289.392 475.548 301.1 482.735C315.089 491.24 317.985 501.886 322.545 518.833C315.993 506.787 302.004 498.57 290.255 496.182C291.467 498.426 297.896 498.241 307.858 504.748C331.46 520.254 324.291 543.688 327.947 537.201C319.156 494.864 336.164 483.888 334.233 477.813C328.276 489.345 323.161 505.345 323.593 518.483C318.663 500.465 310.097 489.304 321.292 456.15Z" fill="white"/>
<path d="M181.221 533.681C178.678 526.473 177.989 518.739 179.218 511.194C180.446 503.649 183.553 496.537 188.25 490.514C192.947 484.492 199.083 479.754 206.09 476.738C213.098 473.723 220.751 472.528 228.341 473.263C222.076 504.151 209.731 520.069 181.221 533.681Z" fill="url(#paint5_linear_6191_4229)"/>
<path d="M219.139 500.672C219.94 499.024 205.069 498.901 196.4 506.726C214.004 481.191 223.104 490.931 224.213 487.822C218.892 487.277 213.537 488.453 208.93 491.178C221.255 477.732 227.972 474.931 228.342 473.263C228.116 472.851 218.071 480.1 208.396 490.684C210.45 487.039 214.066 474.478 211.929 475.034C210.06 492.311 204.987 493.011 195.805 506.314C198.595 498.082 199.665 489.362 198.948 480.697C197.202 481.83 199.317 482.159 197.859 494.762C196.216 508.064 192.457 510.226 186.541 521.531C188.739 513.006 187.896 501.722 186.007 493.279C184.528 495.626 186.5 493.464 187.075 507.446C187.814 526.391 178.324 535.081 181.734 533.413C192.621 508.435 209.177 514.88 211.498 512.368C203.282 511.853 193.011 515.065 187.178 521.861C193.443 509.917 199.913 499.107 219.139 500.672Z" fill="white"/>
<path d="M115.367 533.228C77.1202 512.141 60.3178 481.644 63.7276 437.412C109.144 446.143 132.642 491.22 115.367 533.228Z" fill="url(#paint6_linear_6191_4229)"/>
<path d="M101.952 457.736L101.089 456.913C91.1473 491.569 108.032 507.467 89.0727 474.54C80.692 459.96 87.0186 446.452 84.3278 445.051C80.0964 473.16 97.248 480.758 64.4853 437.576C60.6852 436.773 67.8951 441.242 84.3278 468.465C78.1655 462.452 64.0334 457.18 64.3004 459.898C84.1224 463.481 88.8468 474.828 97.9259 493.155C90.5722 484.259 78.5969 479.111 67.2583 477.608C67.9361 480.141 72.7427 477.855 84.677 484.033C98.6037 491.137 101.972 500.506 108.278 515.95C100.781 505.49 86.8748 499.065 75.6184 497.665C78.2887 501.783 101.788 497.088 114.646 532.795C119.268 535.431 106.183 521.14 110.723 495.955C113.414 481.15 116.556 479.791 115.303 476.825C110.579 487.821 107.21 503.204 109.141 515.559C102.917 500.197 93.222 488.542 101.952 457.736Z" fill="white"/>
<path d="M347.783 398.348C350.289 406.585 364.215 425.489 363.455 455.389C362.12 492.455 343.387 515.291 337.902 526.226C350.802 500.774 351.603 411.033 347.783 398.348Z" fill="#6FB7A9"/>
<path d="M307.367 408.5C310.284 411.342 322.239 412.742 329.757 423.368C339.082 436.65 336.987 451.003 338.939 456.089C336.884 450.591 325.361 442.272 317.966 431.729C311.783 422.792 310.572 411.569 307.367 408.5Z" fill="#6FB7A9"/>
<path d="M565.025 428.104C561.8 430.308 559.52 440.707 552.557 447.441C544.341 455.492 532.139 460.187 529.305 464.512C531.954 460.393 532.222 447.07 542.533 437.042C550.893 428.969 562.047 430.143 565.025 428.104Z" fill="#6FB7A9"/>
<path d="M59.293 402.529C62.0865 405.576 73.3429 407.183 81.2717 415.852C90.9465 426.457 93.5963 440.089 97.2731 444.084C93.6168 440.089 80.3063 436.238 70.5699 425.551C62.7028 416.943 62.0865 405.576 59.293 402.529Z" fill="#6FB7A9"/>
<path d="M545.059 146.979C545.092 148.777 544.589 150.545 543.616 152.057C542.643 153.568 541.243 154.755 539.595 155.466C537.947 156.177 536.124 156.38 534.361 156.05C532.597 155.719 530.971 154.869 529.69 153.609C528.41 152.348 527.533 150.735 527.17 148.973C526.808 147.211 526.977 145.381 527.656 143.715C528.335 142.05 529.493 140.625 530.983 139.622C532.473 138.619 534.226 138.083 536.021 138.083C537.197 138.072 538.364 138.294 539.454 138.735C540.545 139.176 541.538 139.828 542.378 140.654C543.217 141.48 543.886 142.464 544.346 143.549C544.806 144.634 545.048 145.8 545.059 146.979Z" stroke="#112629" stroke-width="5.18797" stroke-linecap="round" stroke-linejoin="round"/>
<path d="M388.458 119.653C388.511 122.405 387.746 125.11 386.259 127.424C384.773 129.738 382.633 131.556 380.112 132.646C377.591 133.736 374.803 134.049 372.104 133.545C369.406 133.041 366.917 131.743 364.957 129.816C362.997 127.889 361.654 125.42 361.098 122.725C360.543 120.029 360.801 117.229 361.839 114.681C362.877 112.133 364.648 109.953 366.927 108.418C369.206 106.883 371.889 106.063 374.634 106.063C378.264 106.03 381.759 107.442 384.351 109.991C386.943 112.539 388.42 116.014 388.458 119.653Z" stroke="#112629" stroke-width="5.18797" stroke-linecap="round" stroke-linejoin="round"/>
<path d="M196.219 119.653C197.924 119.67 199.615 119.349 201.196 118.71C202.777 118.071 204.218 117.126 205.435 115.929C206.652 114.732 207.621 113.307 208.289 111.734C208.956 110.161 209.308 108.472 209.324 106.763C209.34 108.472 209.692 110.161 210.359 111.734C211.026 113.307 211.996 114.732 213.213 115.929C214.43 117.126 215.87 118.071 217.452 118.71C219.033 119.349 220.724 119.67 222.429 119.653C218.989 119.62 215.677 120.957 213.22 123.37C210.763 125.783 209.362 129.076 209.324 132.524C209.308 130.815 208.956 129.127 208.288 127.556C207.621 125.984 206.651 124.56 205.433 123.364C204.216 122.169 202.776 121.226 201.195 120.589C199.613 119.952 197.923 119.634 196.219 119.653Z" stroke="#112629" stroke-width="5.18797" stroke-linecap="round" stroke-linejoin="round"/>
<path d="M288.035 78.5924C289.824 78.6089 291.546 77.9136 292.825 76.6591C294.103 75.4046 294.833 73.6931 294.855 71.8999C294.876 73.6931 295.606 75.4046 296.885 76.6591C298.163 77.9136 299.885 78.6089 301.674 78.5924C300.787 78.5842 299.906 78.7514 299.083 79.0844C298.26 79.4173 297.511 79.9096 296.878 80.5329C296.244 81.1563 295.74 81.8986 295.393 82.7175C295.046 83.5364 294.863 84.4158 294.855 85.3055C294.847 84.4158 294.664 83.5364 294.317 82.7175C293.97 81.8986 293.465 81.1563 292.832 80.5329C292.199 79.9096 291.449 79.4173 290.626 79.0844C289.803 78.7514 288.923 78.5842 288.035 78.5924Z" stroke="#112629" stroke-width="5.18797" stroke-linecap="round" stroke-linejoin="round"/>
<path d="M90.4492 204.638C91.3367 204.646 92.2171 204.479 93.0401 204.146C93.8631 203.813 94.6127 203.321 95.2459 202.697C95.8792 202.074 96.3838 201.332 96.7309 200.513C97.078 199.694 97.2608 198.815 97.2688 197.925C97.2769 198.815 97.4596 199.694 97.8067 200.513C98.1538 201.332 98.6584 202.074 99.2917 202.697C99.9249 203.321 100.674 203.813 101.497 204.146C102.321 204.479 103.201 204.646 104.088 204.638C102.3 204.621 100.577 205.317 99.2988 206.571C98.0205 207.826 97.2905 209.537 97.2688 211.33C97.2471 209.537 96.5171 207.826 95.2388 206.571C93.9604 205.317 92.238 204.621 90.4492 204.638Z" stroke="#112629" stroke-width="5.18797" stroke-linecap="round" stroke-linejoin="round"/>
<path d="M294.931 434.426C294.931 434.426 300.97 416.552 293.452 402.199C282.709 381.71 244.154 312.108 244.154 312.108L233.473 376.932C245.797 390.709 272.09 412.783 272.09 421.123C272.09 429.463 257.382 447.708 272.09 486.009C276.137 496.381 279.567 506.984 282.36 517.763H297.889C294.664 498.488 290.433 460.248 294.931 434.426Z" fill="#12477D"/>
<path d="M282.445 517.762C283.74 522.332 284.553 527.025 284.869 531.765C287.765 535.616 295.386 527.152 300.706 529.706C299.396 525.82 298.481 521.812 297.974 517.742L282.445 517.762Z" fill="#FFB7A4"/>
<path d="M278.663 421.124C278.19 409.798 256.273 382.101 237.581 352.51L233.473 376.933C245.797 390.709 272.09 412.784 272.09 421.124C272.09 429.463 257.382 447.708 272.09 486.01C262.764 459.734 279.156 433.211 278.663 421.124Z" fill="#192E59"/>
<path d="M129.526 528.821C129.526 528.821 122.398 534.999 123.733 542H164.301C164.301 542 166.766 536.914 161.61 535.514C150.005 532.363 144.685 526.886 144.685 526.886C142.261 524.909 130.696 533.928 129.526 528.821Z" fill="#192E59"/>
<path d="M129.52 528.821C130.69 533.928 142.255 524.909 144.679 526.886C144.679 526.886 146.363 523.364 149.28 517.763H134.901C133.577 521.661 131.769 525.376 129.52 528.821Z" fill="#FFB7A4"/>
<path d="M244.216 312.108H196.972C183.888 327.737 186.352 346.476 189.577 363.012C192.802 379.548 187.934 413.504 181.238 418.879C174.541 424.253 150.426 451.826 143.792 485.453C141.76 496.458 138.791 507.267 134.918 517.763H149.297C156.876 503.245 172.734 474.725 188.817 457.304C211.104 433.17 226.695 382.678 241.402 364.803C241.382 364.803 255.514 350.574 244.216 312.108Z" fill="#12477D"/>
<path d="M285.734 280.437C280.969 278.563 260.202 263.552 257.819 261.245C255.437 258.939 248.227 248.499 238.572 236.535L237.977 235.814L227.562 249.734L236.251 262.09C236.251 262.09 248.329 274.445 252.376 278.316C256.422 282.188 280.003 292.484 280.003 292.484L297.545 286.306C293.712 284.146 289.77 282.187 285.734 280.437Z" fill="#FFB7A4"/>
<path d="M207.141 215.778L208.599 223.047L227.497 249.817L237.973 235.958C227.558 223.294 215.234 215.551 207.141 215.778Z" fill="#C6E1DC"/>
<path d="M287.131 289.889C287.131 289.889 253.567 274.301 251.924 271.747C250.281 269.194 250.671 260.318 251.924 253.832C248.494 249.281 243.913 243.165 238.593 236.596L237.997 235.875L227.562 249.734L236.251 262.089C236.251 262.089 248.329 274.445 252.376 278.316C256.422 282.187 280.003 292.484 280.003 292.484L287.131 289.889Z" fill="#E08D7E"/>
<path d="M213.186 218.002C231.838 229.204 237.199 238.368 242.313 245.101C247.428 251.835 240.259 273.622 244.183 312.108C228.931 317.716 212.19 317.716 196.939 312.108C196.939 312.108 207.682 298.662 205.545 289.231C203.409 279.799 163.416 241.312 186.483 221.935L213.186 218.002Z" fill="#E1F4F2"/>
<path d="M213.287 238.429L202.154 235.669C202.154 235.669 193.938 227.062 196.854 223.87C198.169 222.387 194.184 221.811 189.501 221.502L186.502 221.934C163.414 241.312 203.407 279.819 205.564 289.23C207.721 298.64 196.957 312.108 196.957 312.108C209.109 316.548 222.258 317.49 234.917 314.826C229.966 297.92 217.395 254.882 213.287 238.429Z" fill="#C6E1DC"/>
<path d="M319.992 535.905C315.884 534.237 302.758 532.486 300.766 529.727C295.446 527.153 287.825 535.616 284.929 531.786C284.929 531.786 282.402 534.484 282.402 542.082H323.854C323.947 540.775 323.623 539.472 322.929 538.361C322.235 537.251 321.206 536.391 319.992 535.905Z" fill="#192E59"/>
<path d="M196.752 259.722L160.395 255.047C142.039 252.694 123.405 256.02 106.988 264.582L75.5195 281.055C79.4395 288.611 85.5283 294.815 92.9999 298.868L148.81 329.097L196.752 259.722Z" fill="url(#paint7_linear_6191_4229)"/>
<path d="M262.605 386.549L245.536 419.085C236.902 435.517 223.463 448.91 207.021 457.468L175.553 473.942C171.64 466.387 170.073 457.831 171.054 449.376L178.428 386.199L262.605 386.549Z" fill="url(#paint8_linear_6191_4229)"/>
<path d="M490.118 187.401C490.118 187.401 447.209 177.867 408.715 179.926L449.509 258.609C473.254 228.071 490.118 187.401 490.118 187.401Z" fill="url(#paint9_linear_6191_4229)"/>
<path d="M262.606 386.549C299.703 364.104 399.614 303.089 428.638 280.273C436.431 273.888 443.437 266.595 449.508 258.548L408.714 179.927C398.651 180.284 388.667 181.839 378.971 184.56C343.661 195.289 236.458 242.218 196.814 259.783C187.122 264.052 179.158 271.484 174.219 280.87L232.391 393.015C242.902 394.35 253.555 392.071 262.606 386.549Z" fill="url(#paint10_linear_6191_4229)"/>
<path d="M416.496 251.917C420.079 230.99 406.062 211.113 385.187 207.521C364.312 203.929 344.485 217.981 340.902 238.908C337.319 259.835 351.336 279.712 372.211 283.304C393.086 286.896 412.913 272.843 416.496 251.917Z" fill="url(#paint11_linear_6191_4229)"/>
<path d="M389.185 272.657C403.777 268.736 412.435 253.699 408.523 239.072C404.612 224.444 389.613 215.764 375.022 219.685C360.43 223.606 351.772 238.642 355.683 253.27C359.594 267.898 374.594 276.578 389.185 272.657Z" fill="url(#paint12_linear_6191_4229)"/>
<path d="M148.764 345.2L165.197 376.871C166.489 379.376 168.371 381.527 170.679 383.138C172.988 384.749 175.654 385.772 178.446 386.116L148.826 329.014C147.512 331.506 146.819 334.281 146.809 337.099C146.798 339.918 147.469 342.698 148.764 345.2Z" fill="#192E59"/>
<path d="M174.262 280.809L148.832 329.036L178.452 386.117L232.434 392.954L174.262 280.809Z" fill="#D3CECB"/>
<path d="M148.764 345.2C119.329 360.541 102.629 389.371 102.629 389.371C102.629 389.371 126.313 397.154 165.197 376.871L148.764 345.2Z" fill="url(#paint13_linear_6191_4229)"/>
<path d="M152.628 352.634C142.632 358.251 134.217 366.313 128.164 376.068C128.164 376.068 140.715 380.186 161.338 369.437L152.628 352.634Z" fill="#E25E4A"/>
<path d="M214.802 248.911C213.036 232.437 210.694 226.445 200.958 226.692C199.972 226.692 183.868 230.151 191.714 260.525L215.418 254.553C215.234 252.535 214.987 250.62 214.802 248.911Z" fill="#E1F4F2"/>
<path d="M262.605 359.491C258.661 359.347 256.155 356.773 247.035 354.137C243.255 353.128 237.216 348.33 234.443 332.948C231.67 317.565 228.096 310.729 224.173 304.428C220.701 298.785 217.312 271.892 215.36 254.553L191.656 260.525L191.841 261.246C200.057 292.319 206.446 297.364 207.452 304.181C208.241 314.021 211.537 323.494 217.024 331.692C225.076 344.294 233.128 360.953 233.128 360.953C233.128 360.953 237.401 376.089 240.687 376.851C241.797 377.118 247.486 383.996 250.958 385.087C250.958 385.087 258.106 382.431 258.784 379.981C259.216 375.385 259.216 370.759 258.784 366.163C258.445 364.183 257.587 362.328 256.298 360.789C262.276 363.733 266.117 359.615 262.605 359.491Z" fill="#FFB7A4"/>
<path d="M207.146 206.882C206.447 207 205.76 207.179 205.092 207.417C204.83 207.526 204.615 207.724 204.483 207.976C204.352 208.228 204.313 208.519 204.373 208.797C205.05 211.209 205.965 213.547 207.105 215.778L209.057 216.128C210.558 216.406 211.969 217.049 213.165 218.002C216.082 220.328 222.901 224.467 226.373 228.771C231.159 234.743 228.776 236.658 222.264 231.654C214.726 225.888 211.439 223.541 198.499 223.809C185.558 224.076 180.012 226.691 180.012 226.691V186.845L195.541 180.956L207.146 206.882Z" fill="#FFB7A4"/>
<path d="M190.914 182.727L180.109 186.845V187.01V226.732C180.109 226.732 185.204 224.344 196.932 223.911C202.232 220.122 199.521 216.498 199.972 213.43C200.507 209.888 202.027 207.479 207.223 206.923L193.214 182.418L190.914 182.727Z" fill="#E08D7E"/>
<path d="M192.867 157.728C186.903 157.689 181.134 159.859 176.668 163.823C172.202 167.787 169.354 173.265 168.67 179.206C167.849 185.198 168.526 192.508 163.145 195.927C158.852 198.665 152.977 197.224 147.862 198.295C144.73 198.932 141.917 200.643 139.907 203.135C137.897 205.627 136.817 208.743 136.852 211.947C137.246 215.167 138.733 218.152 141.064 220.402C143.394 222.652 146.426 224.029 149.649 224.303C153.532 224.653 158.318 223.85 160.577 226.794C162.837 229.739 160.762 233.26 158.112 235.402C155.462 237.544 152.053 238.903 149.896 241.435C148.546 242.98 147.726 244.917 147.556 246.963C147.386 249.009 147.875 251.056 148.951 252.802C150.187 254.57 151.894 255.952 153.878 256.789C155.862 257.627 158.042 257.887 160.166 257.539C162.156 256.888 164.236 256.555 166.329 256.55C169.656 257.024 171.505 260.236 173.908 262.378C176.229 264.287 179.094 265.409 182.091 265.583C185.088 265.756 188.062 264.973 190.587 263.346C192.939 261.724 194.619 259.297 195.311 256.522C196.003 253.746 195.66 250.812 194.346 248.272C192.416 244.813 188.759 242.383 186.685 238.985C185.357 236.762 184.752 234.18 184.955 231.597C185.157 229.014 186.157 226.558 187.814 224.57C191.224 220.452 197.407 217.857 197.797 212.751C198.311 206.182 187.876 199.077 188.78 192.55C189.232 189.275 190.587 188.184 193.792 186.784C201.864 183.262 216.12 185.569 217.948 175.664C220.228 163.206 205.336 157.543 192.867 157.728Z" fill="#112629"/>
<path d="M215.685 173.852C218.582 186.496 214.967 207.17 207.14 206.8C199.314 206.429 192.762 196.751 192.762 190.717C192.762 190.717 187.894 190.985 187.627 182.089C187.36 173.193 192.865 174.902 194.672 179.371C196.48 183.839 201.841 183.695 206.196 178.629C210.879 173.296 215.685 173.852 215.685 173.852Z" fill="#FFB7A4"/>
<path d="M210.345 216.457C209.933 216.326 209.515 216.216 209.092 216.128L207.141 215.778C208.318 218.36 209.786 220.799 211.516 223.047L210.345 216.457Z" fill="#E08D7E"/>
<path d="M352.082 529.212C353.766 533.454 363.4 527.256 367.549 529.212C368.776 525.308 370.245 521.485 371.945 517.763H355.8C353.602 524.682 352.082 529.212 352.082 529.212Z" fill="#FFB7A4"/>
<path d="M368.309 517.763C366.543 523.756 365.434 528.821 365.434 528.821L367.488 529.212L371.883 517.763H368.309Z" fill="#E08D7E"/>
<path d="M352.083 529.213C352.083 529.213 346.167 535.534 347.79 542H389.138C389.138 542 387.536 537.305 384.085 536.399C380.635 535.493 367.55 529.213 367.55 529.213C363.401 527.256 353.767 533.455 352.083 529.213Z" fill="#192E59"/>
<path d="M428.532 402.55C426.191 371.661 381.062 359.491 381.062 359.491C390.203 385.87 398.255 430.555 398.255 437.021C398.255 443.487 373.01 455.863 367.115 479.009C363.623 492.702 359.001 507.838 355.797 517.763H371.942C383.008 493.787 398.638 472.207 417.954 454.236C417.954 454.236 430.915 433.417 428.532 402.55Z" fill="#12477D"/>
<path d="M417.954 454.236C417.954 454.236 430.874 433.417 428.533 402.55C426.191 371.682 381.063 359.491 381.063 359.491C385.442 372.865 389.056 386.478 391.888 400.264C406.924 418.612 418.837 437.906 415.037 448.862C410.724 461.382 385.582 466.447 368.266 517.763H371.901C382.979 493.783 398.623 472.203 417.954 454.236Z" fill="#192E59"/>
<path d="M471.093 535.575C467.806 534.113 449.463 527.338 449.463 527.338C445.026 525.752 442.787 529.253 439.398 529.253C438.2 529.13 437.065 528.657 436.132 527.894C434.623 529.9 433.711 532.292 433.5 534.795C433.289 537.298 433.789 539.81 434.941 542.041H475.098C475.098 542.041 474.379 537.037 471.093 535.575Z" fill="#192E59"/>
<path d="M453.385 434.858C458.767 409.736 444.491 360.211 428.53 346.023C412.57 331.835 374.631 324.504 374.631 324.504C362.307 355.187 377.404 372.072 389.667 380.495C407.394 392.665 431.201 425.345 431.201 435.579C431.201 445.813 417.233 462.349 425.182 486.545C429.455 499.518 432.289 510.411 433.994 517.763H449.4C449.153 498.303 449.256 454.153 453.385 434.858Z" fill="#12477D"/>
<path d="M433.996 517.763C435.475 524.126 436.05 527.853 436.05 527.853C436.983 528.617 438.118 529.089 439.316 529.212C442.705 529.212 444.944 525.712 449.381 527.297C449.381 527.297 449.381 523.653 449.258 517.763H433.996Z" fill="#FFB7A4"/>
<path d="M538.965 280.397C534.933 279.91 530.858 279.91 526.826 280.397C526.826 280.397 506.963 290.384 506.798 289.725C506.634 289.066 504.744 266.312 498.582 261.019L505.402 256.036L528.674 254.389L538.965 280.397Z" fill="#FFB7A4"/>
<path d="M538.959 280.397L528.689 254.389L505.416 256.036L498.699 261.019C500.568 262.626 502.807 268.68 504.06 272.592C511.373 268.989 521.808 280.397 526.902 280.397C530.907 279.917 534.954 279.917 538.959 280.397Z" fill="#E08D7E"/>
<path d="M544.059 243.763C550.879 241.209 549.872 235.835 546.771 233.343C543.669 230.851 537.383 234.661 534.015 231.49C530.646 228.318 498.705 228.442 505.442 256.118L514.09 262.543C514.09 262.543 515.076 255.335 520.252 257.003C525.429 258.671 533.542 261.698 536.213 254.944C537.932 250.66 540.618 246.833 544.059 243.763Z" fill="#112629"/>
<path d="M544.055 243.762C547.937 256.118 546.787 280.066 538.96 280.396C531.134 280.725 523.801 271.541 523.349 265.508C523.349 265.508 518.522 266.167 517.536 257.271C516.55 248.375 522.199 249.693 524.356 253.997C526.513 258.3 531.977 252.514 532.572 245.863C533.168 239.211 544.055 243.762 544.055 243.762Z" fill="#FFB7A4"/>
<path d="M498.704 261.019C480.217 235.526 395.034 274.424 374.637 324.505C377.126 327.513 380.242 329.938 383.765 331.61C387.289 333.282 391.135 334.16 395.034 334.183C409.002 334.719 428.536 346.024 428.536 346.024C442.922 338.262 458.434 332.814 474.507 329.879C502.442 324.505 520.046 290.672 498.704 261.019Z" fill="#E1F4F2"/>
<path d="M498.704 261.019C480.217 235.526 395.034 274.424 374.637 324.505C377.126 327.513 380.242 329.938 383.765 331.61C387.289 333.282 391.135 334.16 395.034 334.183H395.28C404.875 321.345 415.902 309.648 428.146 299.321C451.973 280.087 490.364 276.175 504.928 272.201C503.319 268.231 501.228 264.476 498.704 261.019Z" fill="#C6E1DC"/>
<path d="M409.344 268.906C399.074 271.789 357.869 306.322 352.878 306.466C349.942 307.726 346.939 308.82 343.881 309.74C343.881 309.74 336.239 307.372 334.37 308.649C332.501 309.925 339.67 312.561 339.67 312.561C336.013 313.476 332.434 314.681 328.968 316.165C327.078 317.421 335.705 326.955 337.78 327.285C339.855 327.614 349.262 325.596 351.214 326.358C353.165 327.12 349.16 329.838 349.324 331.177C349.488 332.515 356.328 331.28 357.54 327.511C358.752 323.743 359.861 320.675 359.594 319.521C368.072 314.019 377.341 309.852 387.078 307.166C402.319 303.212 411.727 299.403 416.657 293.843C416.657 293.843 419.553 291.557 431.179 293.658C432.576 293.925 434.035 294.152 435.534 294.378L427.071 263.922L409.344 268.906Z" fill="#FFB7A4"/>
<path d="M473.541 253.235C464.749 253.709 443.88 259.269 427.016 263.964L435.478 294.42C453.205 297.076 476.026 297.385 486.03 290.096C503.551 277.349 498.703 252 473.541 253.235Z" fill="#E1F4F2"/>
<path d="M98.2527 246.501C97.2668 246.192 96.1987 245.863 95.3359 245.492" stroke="#112629" stroke-width="1.29699" stroke-miterlimit="10"/>
<path d="M89.6654 243.001C63.6195 229.966 46.9198 198.81 47.4538 168.189C48.0495 134.336 67.2142 102.624 93.5887 83.0199C110.246 70.7447 129.668 62.781 150.132 59.8354C170.596 56.8898 191.468 59.0535 210.898 66.1342C249.535 80.5488 280.511 115.72 291.295 157.193C293.657 166.336 295.075 176.2 292.076 185.137C289.077 194.074 280.511 201.508 271.535 200.046C259.313 197.986 254.198 181.842 256.355 169.157C260.874 142.614 288.07 122.783 313.418 127.54C327.632 130.217 339.895 139.216 352.774 146.073C365.653 152.931 381.161 157.646 394.328 151.448C416.779 140.802 417.848 107.854 432.616 87.2619C443.174 72.559 463.264 63.4161 480.847 63.9103C498.43 64.4045 516.3 79.1691 515.766 97.558C515.355 110.346 506.851 120.971 500.217 131.7C493.582 142.428 488.426 156.822 495.061 167.572C500.176 176.035 510.384 178.959 519.361 182.48C534.417 188.37 548.508 197.966 557.854 211.68C563.911 220.875 567.728 231.368 568.999 242.313C570.269 253.258 568.956 264.349 565.167 274.692C561.708 283.796 556.288 292.023 549.293 298.786C542.299 305.549 533.902 310.681 524.701 313.818" stroke="#112629" stroke-width="1.29699" stroke-miterlimit="10" stroke-dasharray="7.81 7.81"/>
<path d="M521.726 314.786C520.719 315.053 519.671 315.3 518.727 315.506" stroke="#112629" stroke-width="1.29699" stroke-miterlimit="10"/>
</g>
<defs>
<linearGradient id="paint0_linear_6191_4229" x1="309.973" y1="-41.6253" x2="309.973" y2="287.85" gradientUnits="userSpaceOnUse">
<stop stop-color="#C6E1DC"/>
<stop offset="0.49" stop-color="#E1EFED"/>
<stop offset="1" stop-color="#F9FBFC"/>
</linearGradient>
<linearGradient id="paint1_linear_6191_4229" x1="490.834" y1="218.887" x2="491.68" y2="528.615" gradientUnits="userSpaceOnUse">
<stop stop-color="#6FB7A9"/>
<stop offset="0.35" stop-color="#A3D1C8"/>
<stop offset="0.79" stop-color="#E1EFED"/>
<stop offset="1" stop-color="#F9FBFC"/>
</linearGradient>
<linearGradient id="paint2_linear_6191_4229" x1="124.037" y1="219.896" x2="124.884" y2="529.768" gradientUnits="userSpaceOnUse">
<stop stop-color="#6FB7A9"/>
<stop offset="0.35" stop-color="#A3D1C8"/>
<stop offset="0.79" stop-color="#E1EFED"/>
<stop offset="1" stop-color="#F9FBFC"/>
</linearGradient>
<linearGradient id="paint3_linear_6191_4229" x1="526.063" y1="213.327" x2="526.888" y2="523.467" gradientUnits="userSpaceOnUse">
<stop stop-color="#6FB7A9"/>
<stop offset="0.22" stop-color="#72B9AB"/>
<stop offset="0.38" stop-color="#7CBDB1"/>
<stop offset="0.54" stop-color="#8DC6BB"/>
<stop offset="0.68" stop-color="#A4D1C9"/>
<stop offset="0.81" stop-color="#C2E0DB"/>
<stop offset="0.94" stop-color="#E7F2F1"/>
<stop offset="1" stop-color="#F9FBFC"/>
</linearGradient>
<linearGradient id="paint4_linear_6191_4229" x1="308.616" y1="219.979" x2="309.442" y2="528.842" gradientUnits="userSpaceOnUse">
<stop stop-color="#6FB7A9"/>
<stop offset="0.35" stop-color="#A3D1C8"/>
<stop offset="0.79" stop-color="#E1EFED"/>
<stop offset="1" stop-color="#F9FBFC"/>
</linearGradient>
<linearGradient id="paint5_linear_6191_4229" x1="202.727" y1="213.966" x2="203.553" y2="524.744" gradientUnits="userSpaceOnUse">
<stop stop-color="#6FB7A9"/>
<stop offset="0.16" stop-color="#73B9AC"/>
<stop offset="0.33" stop-color="#80BFB3"/>
<stop offset="0.51" stop-color="#95CAC0"/>
<stop offset="0.69" stop-color="#B3D9D2"/>
<stop offset="0.87" stop-color="#D9EBE9"/>
<stop offset="1" stop-color="#F9FBFC"/>
</linearGradient>
<linearGradient id="paint6_linear_6191_4229" x1="91.4989" y1="219.567" x2="92.3246" y2="529.851" gradientUnits="userSpaceOnUse">
<stop stop-color="#6FB7A9"/>
<stop offset="0.15" stop-color="#74B9AC"/>
<stop offset="0.32" stop-color="#83C1B5"/>
<stop offset="0.51" stop-color="#9BCCC3"/>
<stop offset="0.72" stop-color="#BCDDD7"/>
<stop offset="0.92" stop-color="#E7F2F1"/>
<stop offset="1" stop-color="#F9FBFC"/>
</linearGradient>
<linearGradient id="paint7_linear_6191_4229" x1="127.618" y1="253.852" x2="162.975" y2="321.691" gradientUnits="userSpaceOnUse">
<stop stop-color="#F79413"/>
<stop offset="0.52" stop-color="#EB7632"/>
<stop offset="1" stop-color="#E25E4A"/>
</linearGradient>
<linearGradient id="paint8_linear_6191_4229" x1="226.785" y1="448.856" x2="191.525" y2="380.806" gradientUnits="userSpaceOnUse">
<stop stop-color="#F79413"/>
<stop offset="0.52" stop-color="#EB7632"/>
<stop offset="1" stop-color="#E25E4A"/>
</linearGradient>
<linearGradient id="paint9_linear_6191_4229" x1="486.723" y1="255.56" x2="444.25" y2="174.069" gradientUnits="userSpaceOnUse">
<stop stop-color="#DB4C3A"/>
<stop offset="1" stop-color="#E25E4A"/>
</linearGradient>
<linearGradient id="paint10_linear_6191_4229" x1="343.328" y1="330.298" x2="287.451" y2="223.091" gradientUnits="userSpaceOnUse">
<stop stop-color="#D3CECB"/>
<stop offset="0.01" stop-color="#D4D0CD"/>
<stop offset="0.19" stop-color="#E5E3E2"/>
<stop offset="0.4" stop-color="#F0F0F1"/>
<stop offset="0.64" stop-color="#F7F9F9"/>
<stop offset="1" stop-color="#F9FBFC"/>
</linearGradient>
<linearGradient id="paint11_linear_6191_4229" x1="344.702" y1="175.935" x2="398.324" y2="285.154" gradientUnits="userSpaceOnUse">
<stop stop-color="#D3CECB"/>
<stop offset="0.28" stop-color="#DAD6D4"/>
<stop offset="0.73" stop-color="#ECEBEB"/>
<stop offset="1" stop-color="#F9FBFC"/>
</linearGradient>
<linearGradient id="paint12_linear_6191_4229" x1="369.466" y1="221.902" x2="394.82" y2="270.475" gradientUnits="userSpaceOnUse">
<stop stop-color="#12477D"/>
<stop offset="0.3" stop-color="#143F71"/>
<stop offset="1" stop-color="#192E59"/>
</linearGradient>
<linearGradient id="paint13_linear_6191_4229" x1="105.735" y1="387.775" x2="154.52" y2="362.474" gradientUnits="userSpaceOnUse">
<stop stop-color="#FCB414"/>
<stop offset="0.51" stop-color="#F79413"/>
<stop offset="0.76" stop-color="#EB7632"/>
<stop offset="1" stop-color="#E25E4A"/>
</linearGradient>
<clipPath id="clip0_6191_4229">
<rect width="540" height="484" fill="white" transform="translate(30 58)"/>
</clipPath>
</defs>
</svg>
